<svg width="728" height="90" viewBox="0 0 728 90" fill="none" xmlns="http://www.w3.org/2000/svg">
<rect width="728" height="90" fill="#F2F2F2"/>
<path d="M329.531 45.9941V49H327.773V40.4688H331.102C331.742 40.4688 332.305 40.5859 332.789 40.8203C333.277 41.0547 333.652 41.3887 333.914 41.8223C334.176 42.252 334.307 42.7422 334.307 43.293C334.307 44.1289 334.02 44.7891 333.445 45.2734C332.875 45.7539 332.084 45.9941 331.072 45.9941H329.531ZM329.531 44.5703H331.102C331.566 44.5703 331.92 44.4609 332.162 44.2422C332.408 44.0234 332.531 43.7109 332.531 43.3047C332.531 42.8867 332.408 42.5488 332.162 42.291C331.916 42.0332 331.576 41.9004 331.143 41.8926H329.531V44.5703ZM341.977 40.4688V46.0879C341.977 47.0215 341.684 47.7598 341.098 48.3027C340.516 48.8457 339.719 49.1172 338.707 49.1172C337.711 49.1172 336.92 48.8535 336.334 48.3262C335.748 47.7988 335.449 47.0742 335.438 46.1523V40.4688H337.195V46.0996C337.195 46.6582 337.328 47.0664 337.594 47.3242C337.863 47.5781 338.234 47.7051 338.707 47.7051C339.695 47.7051 340.197 47.1855 340.213 46.1465V40.4688H341.977ZM343.418 49V40.4688H346.406C347.441 40.4688 348.227 40.668 348.762 41.0664C349.297 41.4609 349.564 42.041 349.564 42.8066C349.564 43.2246 349.457 43.5938 349.242 43.9141C349.027 44.2305 348.729 44.4629 348.346 44.6113C348.783 44.7207 349.127 44.9414 349.377 45.2734C349.631 45.6055 349.758 46.0117 349.758 46.4922C349.758 47.3125 349.496 47.9336 348.973 48.3555C348.449 48.7773 347.703 48.9922 346.734 49H343.418ZM345.176 45.2852V47.5879H346.682C347.096 47.5879 347.418 47.4902 347.648 47.2949C347.883 47.0957 348 46.8223 348 46.4746C348 45.6934 347.596 45.2969 346.787 45.2852H345.176ZM345.176 44.043H346.477C347.363 44.0273 347.807 43.6738 347.807 42.9824C347.807 42.5957 347.693 42.3184 347.467 42.1504C347.244 41.9785 346.891 41.8926 346.406 41.8926H345.176V44.043ZM352.84 47.5879H356.572V49H351.082V40.4688H352.84V47.5879ZM359.455 49H357.697V40.4688H359.455V49ZM367.787 46.1582C367.721 47.0762 367.381 47.7988 366.768 48.3262C366.158 48.8535 365.354 49.1172 364.354 49.1172C363.26 49.1172 362.398 48.75 361.77 48.0156C361.145 47.2773 360.832 46.2656 360.832 44.9805V44.459C360.832 43.6387 360.977 42.916 361.266 42.291C361.555 41.666 361.967 41.1875 362.502 40.8555C363.041 40.5195 363.666 40.3516 364.377 40.3516C365.361 40.3516 366.154 40.6152 366.756 41.1426C367.357 41.6699 367.705 42.4102 367.799 43.3633H366.041C365.998 42.8125 365.844 42.4141 365.578 42.168C365.316 41.918 364.916 41.793 364.377 41.793C363.791 41.793 363.352 42.0039 363.059 42.4258C362.77 42.8438 362.621 43.4941 362.613 44.377V45.0215C362.613 45.9434 362.752 46.6172 363.029 47.043C363.311 47.4688 363.752 47.6816 364.354 47.6816C364.896 47.6816 365.301 47.5586 365.566 47.3125C365.836 47.0625 365.99 46.6777 366.029 46.1582H367.787ZM370.811 49H369.053V40.4688H370.811V49ZM372.445 49V40.4688H375.07C375.82 40.4688 376.49 40.6387 377.08 40.9785C377.674 41.3145 378.137 41.7949 378.469 42.4199C378.801 43.041 378.967 43.748 378.967 44.541V44.9336C378.967 45.7266 378.803 46.4316 378.475 47.0488C378.15 47.666 377.691 48.1445 377.098 48.4844C376.504 48.8242 375.834 48.9961 375.088 49H372.445ZM374.203 41.8926V47.5879H375.053C375.74 47.5879 376.266 47.3633 376.629 46.9141C376.992 46.4648 377.178 45.8223 377.186 44.9863V44.5352C377.186 43.668 377.006 43.0117 376.646 42.5664C376.287 42.1172 375.762 41.8926 375.07 41.8926H374.203ZM384.938 47.2422H381.855L381.27 49H379.4L382.576 40.4688H384.205L387.398 49H385.529L384.938 47.2422ZM382.33 45.8184H384.463L383.391 42.625L382.33 45.8184ZM388.195 49V40.4688H390.82C391.57 40.4688 392.24 40.6387 392.83 40.9785C393.424 41.3145 393.887 41.7949 394.219 42.4199C394.551 43.041 394.717 43.748 394.717 44.541V44.9336C394.717 45.7266 394.553 46.4316 394.225 47.0488C393.9 47.666 393.441 48.1445 392.848 48.4844C392.254 48.8242 391.584 48.9961 390.838 49H388.195ZM389.953 41.8926V47.5879H390.803C391.49 47.5879 392.016 47.3633 392.379 46.9141C392.742 46.4648 392.928 45.8223 392.936 44.9863V44.5352C392.936 43.668 392.756 43.0117 392.396 42.5664C392.037 42.1172 391.512 41.8926 390.82 41.8926H389.953ZM401.133 45.3027H397.758V47.5879H401.719V49H396V40.4688H401.707V41.8926H397.758V43.9258H401.133V45.3027Z" fill="black" fill-opacity="0.1"/>
<rect x="706" width="22" height="22" fill="#E2E2E2"/>
<path d="M713 15L717 11M721 7L717 11M717 11L713 7L721 15" stroke="#343731" stroke-opacity="0.5" stroke-width="2"/>
</svg>
