<svg width="12" height="15" viewBox="0 0 12 15" fill="none" xmlns="http://www.w3.org/2000/svg">
<path fill-rule="evenodd" clip-rule="evenodd" d="M6.43849 14.6142L6 15L5.56151 14.6142C1.87421 11.3696 0 8.53659 0 6.04634C0 2.51975 2.73137 0 6 0C9.26863 0 12 2.51975 12 6.04634C12 8.53659 10.1258 11.3696 6.43849 14.6142ZM1.33333 6.04634C1.33333 7.96049 2.87107 10.3685 6 13.2102C9.12893 10.3685 10.6667 7.96049 10.6667 6.04634C10.6667 3.28961 8.55726 1.34363 6 1.34363C3.44274 1.34363 1.33333 3.28961 1.33333 6.04634ZM6 2.68726C7.84095 2.68726 9.33333 4.19117 9.33333 6.04634C9.33333 7.9015 7.84095 9.40541 6 9.40541C4.15905 9.40541 2.66667 7.9015 2.66667 6.04634C2.66667 4.19117 4.15905 2.68726 6 2.68726ZM6 4.03089C4.89543 4.03089 4 4.93324 4 6.04634C4 7.15944 4.89543 8.06178 6 8.06178C7.10457 8.06178 8 7.15944 8 6.04634C8 4.93324 7.10457 4.03089 6 4.03089Z" fill="#19AAE3"/>
</svg>
