<svg width="32" height="32" viewBox="0 0 32 32" fill="none" xmlns="http://www.w3.org/2000/svg">
<rect width="32" height="32" fill="#E5E5E5"/>
<g clip-path="url(#clip0)">
<rect width="1440" height="870" transform="translate(-573 -207)" fill="white"/>
<rect x="-606" y="-304" width="1506" height="1007" fill="#F9FAFC"/>
<g filter="url(#filter0_dd)">
<rect x="-424" y="-166" width="849" height="404" rx="4" fill="white"/>
<rect x="-423.5" y="-165.5" width="848" height="403" rx="3.5" stroke="#F5F5F5"/>
</g>
<circle cx="16" cy="16" r="16" fill="#FFB602" fill-opacity="0.3"/>
<path fill-rule="evenodd" clip-rule="evenodd" d="M19.6226 18.717C22.457 18.717 24.7547 16.4193 24.7547 13.5849C24.7547 10.7505 22.457 8.45282 19.6226 8.45282C16.7883 8.45282 14.4906 10.7505 14.4906 13.5849C14.4906 16.4193 16.7883 18.717 19.6226 18.717Z" fill="#FFB602"/>
<path d="M18.3192 15.0189C17.6266 12.2846 15.1839 10.2642 12.2767 10.2642C8.83104 10.2642 6.03775 13.1026 6.03775 16.6038C6.03775 18.7956 7.13238 20.7277 8.79644 21.8662C9.48754 22.5338 10.4222 22.9435 11.451 22.9435H20.9012C23.0295 22.9435 24.7547 21.1904 24.7547 19.0278V18.9346C24.7547 16.772 23.0295 15.0189 20.9012 15.0189H18.3192Z" fill="white"/>
</g>
<defs>
<filter id="filter0_dd" x="-504" y="-246" width="1009" height="564" filterUnits="userSpaceOnUse" color-interpolation-filters="sRGB">
<feFlood flood-opacity="0" result="BackgroundImageFix"/>
<feColorMatrix in="SourceAlpha" type="matrix" values="0 0 0 0 0 0 0 0 0 0 0 0 0 0 0 0 0 0 127 0"/>
<feOffset dx="-20" dy="-20"/>
<feGaussianBlur stdDeviation="30"/>
<feColorMatrix type="matrix" values="0 0 0 0 1 0 0 0 0 1 0 0 0 0 1 0 0 0 1 0"/>
<feBlend mode="normal" in2="BackgroundImageFix" result="effect1_dropShadow"/>
<feColorMatrix in="SourceAlpha" type="matrix" values="0 0 0 0 0 0 0 0 0 0 0 0 0 0 0 0 0 0 127 0"/>
<feOffset dx="20" dy="20"/>
<feGaussianBlur stdDeviation="30"/>
<feColorMatrix type="matrix" values="0 0 0 0 0.85098 0 0 0 0 0.85098 0 0 0 0 0.85098 0 0 0 0.2 0"/>
<feBlend mode="normal" in2="effect1_dropShadow" result="effect2_dropShadow"/>
<feBlend mode="normal" in="SourceGraphic" in2="effect2_dropShadow" result="shape"/>
</filter>
<clipPath id="clip0">
<rect width="1440" height="870" fill="white" transform="translate(-573 -207)"/>
</clipPath>
</defs>
</svg>
