<svg width="20" height="20" viewBox="0 0 20 20" fill="none" xmlns="http://www.w3.org/2000/svg">
<path fill-rule="evenodd" clip-rule="evenodd" d="M10 20C4.47715 20 0 15.5228 0 10C0 4.47715 4.47715 0 10 0C15.5228 0 20 4.47715 20 10C20 15.5228 15.5228 20 10 20ZM10 18.1818C14.5187 18.1818 18.1818 14.5187 18.1818 10C18.1818 5.48131 14.5187 1.81818 10 1.81818C5.48131 1.81818 1.81818 5.48131 1.81818 10C1.81818 14.5187 5.48131 18.1818 10 18.1818ZM6.36364 14.5455V5.45455C6.36364 4.74051 7.14905 4.3052 7.75454 4.68364L15.0273 9.22909C15.597 9.58515 15.597 10.4148 15.0273 10.7709L7.75454 15.3164C7.14905 15.6948 6.36364 15.2595 6.36364 14.5455ZM12.8302 10L8.18182 7.09477V12.9052L12.8302 10Z" fill="white"/>
</svg>
