<svg width="12" height="12" viewBox="0 0 12 12" fill="none" xmlns="http://www.w3.org/2000/svg">
<path fill-rule="evenodd" clip-rule="evenodd" d="M10.8405 9.644L9.63108 10.8534L8.08309 10.4222L7.64039 10.6048L6.84568 12H5.13584L4.34553 10.6L3.90327 10.4146L2.35543 10.8405L1.14658 9.63163L1.57781 8.08364L1.39519 7.64085L0 6.84556V5.13577L1.40056 4.34548L1.58597 3.90327L1.16007 2.35543L2.36846 1.14704L3.91646 1.57887L4.35877 1.39645L5.15229 0H6.86258L7.65287 1.40056L8.09507 1.58597L9.64266 1.16014L10.8529 2.36867L10.4216 3.91691L10.6041 4.35932L12.0005 5.15284V6.86313L10.6001 7.65335L10.4146 8.09655L10.8405 9.644ZM9.26271 8.02278L9.73826 6.88701L10.9096 6.22607V5.78771L9.73869 5.12236L9.26995 3.9858L9.63089 2.69012L9.32059 2.38027L8.02095 2.73787L6.88638 2.26216L6.22551 1.09096H5.78716L5.1218 2.26186L3.98514 2.73064L2.68922 2.36913L2.38034 2.67801L2.73787 3.97739L2.26216 5.11196L1.09096 5.77283V6.21168L2.26091 6.87857L2.7295 8.01476L2.36849 9.31069L2.67801 9.62021L3.97739 9.26268L5.11191 9.73837L5.77276 10.909H6.21156L6.87793 9.73912L8.0142 9.2705L9.31013 9.63151L9.62019 9.32146L9.26271 8.02278ZM6.00027 8.18219C4.79523 8.18219 3.81836 7.20532 3.81836 6.00028C3.81836 4.79524 4.79523 3.81836 6.00027 3.81836C7.20531 3.81836 8.18219 4.79524 8.18219 6.00028C8.18219 7.20532 7.20531 8.18219 6.00027 8.18219ZM6.00027 7.09123C6.60279 7.09123 7.09123 6.6028 7.09123 6.00028C7.09123 5.39776 6.60279 4.90932 6.00027 4.90932C5.39775 4.90932 4.90932 5.39776 4.90932 6.00028C4.90932 6.6028 5.39775 7.09123 6.00027 7.09123Z" fill="#B2B2B2"/>
</svg>
